<svg xmlns="http://www.w3.org/2000/svg" width="44.845" height="50.514" viewBox="0 0 44.845 50.514">
  <g id="file" transform="translate(-26.374)">
    <path id="Path_802" data-name="Path 802" d="M62.32,41.307a.8.8,0,0,0,.3-.628V4.03a.806.806,0,0,0-.806-.806H38.494a4.567,4.567,0,0,0-8.731,0H27.18a.806.806,0,0,0-.806.806V49.708a.806.806,0,0,0,.806.806h25.6a.808.808,0,0,0,.634-.3Zm-8.727,6.447V41.486h6.269ZM34.128,1.612a2.958,2.958,0,0,1,2.631,1.612H31.5A2.972,2.972,0,0,1,34.128,1.612ZM27.986,4.836h9.1v5.643a1.343,1.343,0,1,1-2.687,0V7.255a.806.806,0,0,0-1.612,0v3.224a2.956,2.956,0,0,0,5.911,0V4.836H61.009V39.874H52.787a.806.806,0,0,0-.806.806V48.9H27.986Z" fill="#5056a4"/>
    <path id="Path_803" data-name="Path 803" d="M108.917,332.112a.806.806,0,1,0,0-1.612H87.18a.806.806,0,1,0,0,1.612Z" transform="translate(-53.551 -294.979)" fill="#e8505b"/>
    <path id="Path_804" data-name="Path 804" d="M87.18,287.112h21.737a.806.806,0,1,0,0-1.612H87.18a.806.806,0,0,0,0,1.612Z" transform="translate(-53.551 -254.815)" fill="#e8505b"/>
    <path id="Path_805" data-name="Path 805" d="M87.18,242.112h21.737a.806.806,0,1,0,0-1.612H87.18a.806.806,0,0,0,0,1.612Z" transform="translate(-53.551 -214.652)" fill="#e8505b"/>
    <path id="Path_806" data-name="Path 806" d="M87.18,197.112h21.737a.806.806,0,1,0,0-1.612H87.18a.806.806,0,0,0,0,1.612Z" transform="translate(-53.551 -174.488)" fill="#e8505b"/>
    <path id="Path_807" data-name="Path 807" d="M87.18,152.112h21.737a.806.806,0,1,0,0-1.612H87.18a.806.806,0,0,0,0,1.612Z" transform="translate(-53.551 -134.325)" fill="#e8505b"/>
    <path id="Path_808" data-name="Path 808" d="M311.272,30H310.2a.806.806,0,0,0,0,1.612h.269V75.678H301.86a.806.806,0,1,0,0,1.612h9.412a.806.806,0,0,0,.806-.806V30.806A.806.806,0,0,0,311.272,30Z" transform="translate(-245.158 -26.776)" fill="#5056a4"/>
    <path id="Path_809" data-name="Path 809" d="M420.507,30h-1.075a.806.806,0,1,0,0,1.612h.269V75.678h-.269a.806.806,0,1,0,0,1.612h1.075a.806.806,0,0,0,.806-.806V30.806A.806.806,0,0,0,420.507,30Z" transform="translate(-350.094 -26.776)" fill="#5056a4"/>
  </g>
</svg>
